<mxfile host="app.diagrams.net" modified="2022-07-27T14:01:26.175Z" agent="5.0 (X11)" etag="vEo7NmdsjykJMskchPbQ" version="20.1.1" type="github">
  <diagram id="C5RBs43oDa-KdzZeNtuy" name="Page-1">
    <mxGraphModel dx="1590" dy="793" grid="1" gridSize="10" guides="1" tooltips="1" connect="1" arrows="1" fold="1" page="1" pageScale="1" pageWidth="827" pageHeight="1169" math="0" shadow="0">
      <root>
        <mxCell id="WIyWlLk6GJQsqaUBKTNV-0" />
        <mxCell id="WIyWlLk6GJQsqaUBKTNV-1" parent="WIyWlLk6GJQsqaUBKTNV-0" />
        <mxCell id="WIyWlLk6GJQsqaUBKTNV-2" value="" style="rounded=0;html=1;jettySize=auto;orthogonalLoop=1;fontSize=11;endArrow=block;endFill=0;endSize=8;strokeWidth=1;shadow=0;labelBackgroundColor=none;edgeStyle=orthogonalEdgeStyle;" parent="WIyWlLk6GJQsqaUBKTNV-1" source="WIyWlLk6GJQsqaUBKTNV-3" edge="1">
          <mxGeometry relative="1" as="geometry">
            <mxPoint x="220" y="170" as="targetPoint" />
          </mxGeometry>
        </mxCell>
        <mxCell id="WIyWlLk6GJQsqaUBKTNV-3" value="User" style="rounded=1;whiteSpace=wrap;html=1;fontSize=12;glass=0;strokeWidth=1;shadow=0;" parent="WIyWlLk6GJQsqaUBKTNV-1" vertex="1">
          <mxGeometry x="160" y="80" width="120" height="40" as="geometry" />
        </mxCell>
        <mxCell id="PlkpsMadUP8vNzPvioEy-0" value="&lt;div&gt;Name: String&lt;/div&gt;&lt;div&gt;Email: String&lt;/div&gt;&lt;div&gt;Date Joined: date time&lt;/div&gt;&lt;div&gt;password: String&lt;/div&gt;&lt;div&gt;location: String&lt;/div&gt;&lt;div&gt;id: String&lt;/div&gt;&lt;div&gt;gender: enum &lt;br&gt;&lt;/div&gt;" style="whiteSpace=wrap;html=1;aspect=fixed;" vertex="1" parent="WIyWlLk6GJQsqaUBKTNV-1">
          <mxGeometry x="130" y="180" width="150" height="150" as="geometry" />
        </mxCell>
        <mxCell id="PlkpsMadUP8vNzPvioEy-3" value="" style="edgeStyle=orthogonalEdgeStyle;rounded=0;orthogonalLoop=1;jettySize=auto;html=1;" edge="1" parent="WIyWlLk6GJQsqaUBKTNV-1" source="PlkpsMadUP8vNzPvioEy-1" target="PlkpsMadUP8vNzPvioEy-2">
          <mxGeometry relative="1" as="geometry" />
        </mxCell>
        <mxCell id="PlkpsMadUP8vNzPvioEy-1" value="Books" style="rounded=1;whiteSpace=wrap;html=1;" vertex="1" parent="WIyWlLk6GJQsqaUBKTNV-1">
          <mxGeometry x="414" y="80" width="120" height="60" as="geometry" />
        </mxCell>
        <mxCell id="PlkpsMadUP8vNzPvioEy-4" style="edgeStyle=orthogonalEdgeStyle;rounded=0;orthogonalLoop=1;jettySize=auto;html=1;" edge="1" parent="WIyWlLk6GJQsqaUBKTNV-1" source="PlkpsMadUP8vNzPvioEy-2">
          <mxGeometry relative="1" as="geometry">
            <mxPoint x="474" y="210" as="targetPoint" />
          </mxGeometry>
        </mxCell>
        <mxCell id="PlkpsMadUP8vNzPvioEy-2" value="&lt;div&gt;tittle: String&lt;/div&gt;&lt;div&gt;id: String&lt;/div&gt;&lt;div&gt;Description: String&lt;/div&gt;" style="rounded=1;whiteSpace=wrap;html=1;" vertex="1" parent="WIyWlLk6GJQsqaUBKTNV-1">
          <mxGeometry x="414" y="180" width="120" height="120" as="geometry" />
        </mxCell>
      </root>
    </mxGraphModel>
  </diagram>
</mxfile>
